<svg width="80" height="80" viewBox="0 0 80 80" fill="none" xmlns="http://www.w3.org/2000/svg">
<path d="M44.691 0.287417C44.4878 0.428048 44.2378 0.78744 44.1128 1.0687C43.9253 1.52185 43.9253 1.67811 44.1128 2.13125C44.4409 2.91254 44.8941 3.16255 46.0191 3.16255C46.5504 3.16255 47.7067 3.24068 48.5974 3.31881C63.4418 4.8345 75.1924 16.585 76.708 31.4295C76.7862 32.3201 76.8643 33.4764 76.8643 34.0077C76.8643 35.1328 77.1143 35.5859 77.8956 35.9141C78.3487 36.1016 78.505 36.1016 78.9582 35.9141C80.0363 35.4609 80.177 34.7265 79.8332 31.2732C78.7863 20.6634 73.0673 11.3192 64.02 5.4439C62.1293 4.20947 58.551 2.50627 56.2852 1.77186C52.0819 0.396797 45.7066 -0.415741 44.691 0.287417Z" fill="white"/>
<path d="M44.7224 9.70984C43.863 10.2411 43.738 11.4287 44.488 12.0849C44.8943 12.4443 45.113 12.5068 46.6443 12.6006C58.0042 13.3194 66.7078 22.0229 67.4265 33.3828C67.5203 34.9298 67.5828 35.1329 67.9422 35.5548C68.6766 36.3673 70.0204 36.0861 70.4579 35.0391C70.8798 34.0078 70.2704 29.617 69.2704 26.5231C66.9734 19.4603 60.9887 13.3663 53.9572 10.9286C51.9727 10.2411 50.0039 9.78797 48.0819 9.58483C45.9256 9.35045 45.3005 9.36607 44.7224 9.70984Z" fill="white"/>
<path d="M10.3615 11.5691C9.92398 11.7254 9.28332 12.0691 8.93956 12.3504C7.59575 13.4129 4.03308 17.2725 3.12679 18.6476C-0.0139786 23.3978 -0.826516 29.0855 0.861062 34.4452C1.62672 36.8671 4.75187 42.6487 7.76763 47.227C11.2053 52.446 14.5804 56.5399 19.3463 61.3058C24.034 65.9779 27.5185 68.853 32.5656 72.2282C36.2377 74.6658 41.066 77.4315 43.5193 78.4628C48.332 80.5098 53.4885 80.5098 58.3168 78.4784C59.7856 77.8534 61.2388 76.9627 62.7233 75.7752C64.4421 74.3845 67.8329 70.8843 68.1923 70.1187C68.6142 69.228 68.6767 67.6186 68.3485 66.5716C68.0985 65.806 67.6141 65.2747 61.2545 58.8994C53.6447 51.2584 53.5979 51.2272 51.7228 51.2272C49.9727 51.2272 49.5352 51.5241 46.0038 55.0242C44.2849 56.7274 42.6286 58.2588 42.3317 58.415C41.988 58.5869 41.4567 58.6963 40.8942 58.6963C40.0504 58.6807 39.8941 58.6181 38.394 57.6181C37.5034 57.04 36.0502 55.993 35.1439 55.2899C33.6751 54.1648 33.4251 54.0242 32.8313 54.0242C32.2688 54.0242 32.0812 54.1023 31.7687 54.4617C31.3312 54.9774 31.2687 55.8836 31.6281 56.3837C32.0812 57.04 36.8315 60.4776 38.3628 61.2589C39.3316 61.7589 40.8629 61.9777 41.9411 61.7745C43.8005 61.4308 44.3318 61.0558 47.7851 57.6181C49.7383 55.6961 51.1603 54.3992 51.4103 54.3367C51.6759 54.2742 52.004 54.3211 52.2697 54.4617C52.5197 54.6023 55.5823 57.5712 59.0981 61.087C65.364 67.3842 65.4578 67.4779 65.4578 68.103C65.4578 68.7124 65.364 68.8217 62.9108 71.2281C60.2544 73.8532 59.3169 74.5564 57.3793 75.4627C55.2698 76.4315 53.5041 76.8065 51.004 76.8065C47.5663 76.8221 45.9256 76.3221 41.7067 74.0564C30.2218 67.8529 21.237 60.1651 13.471 49.8834C9.56459 44.7113 5.00188 36.9922 3.90808 33.7108C2.78303 30.3043 2.89241 26.5229 4.25184 23.1634C5.15813 20.9445 5.90817 19.8976 8.56454 17.1787C9.98648 15.7412 11.299 14.5224 11.5022 14.4755C11.7053 14.413 12.0647 14.4599 12.2991 14.5536C12.5491 14.663 15.643 17.6475 19.1744 21.1945C25.4403 27.4605 25.6122 27.648 25.6122 28.2417C25.6122 28.8199 25.4716 28.9918 22.4246 32.0544C19.6119 34.8827 19.1588 35.414 18.7213 36.3515C18.3306 37.1953 18.19 37.7109 18.1431 38.6329C18.0337 40.4298 18.3462 41.2423 20.0182 43.7268C21.9245 46.5707 22.2683 46.9145 23.0965 46.9145C23.6277 46.9145 23.8621 46.8207 24.2215 46.4613C25.0028 45.6801 24.8778 45.2425 23.2527 42.9299C21.5808 40.5704 21.2526 39.8985 21.237 38.9766C21.237 37.7734 21.5808 37.3047 24.9715 33.8826C28.5498 30.2575 28.7373 29.9606 28.7373 28.1636C28.7373 26.3979 28.5342 26.1479 21.1276 18.7726C16.5337 14.1786 14.2211 11.991 13.7367 11.7566C12.7835 11.2722 11.3928 11.1941 10.3615 11.5691Z" fill="white"/>
<path d="M44.8788 19.007C43.8944 19.4445 43.6913 20.7415 44.4882 21.4603C44.8632 21.804 45.1445 21.8822 46.2383 21.9759C50.676 22.3666 54.1761 24.5385 56.3794 28.2731C57.2388 29.7419 57.77 31.4451 57.9888 33.4296C58.1451 34.8671 58.2232 35.164 58.5826 35.5547C58.8951 35.8984 59.1139 36.0078 59.567 36.0078C60.9264 36.0078 61.3483 35.1796 61.0983 32.9608C60.4889 27.4918 57.3013 22.9135 52.4104 20.4758C49.9103 19.2258 46.0664 18.4758 44.8788 19.007Z" fill="white"/>
<path d="M44.5663 28.5544C44.1757 28.82 43.91 29.6013 44.0194 30.1482C44.1444 30.7732 44.7851 31.2576 45.6601 31.367C47.3477 31.5857 48.4415 32.6795 48.6602 34.3671C48.8321 35.6484 49.5978 36.2422 50.7228 35.9453C51.4416 35.7578 51.7541 35.2109 51.7229 34.2109C51.676 31.9451 50.3166 29.8982 48.1446 28.8356C47.0664 28.3043 45.1132 28.1481 44.5663 28.5544Z" fill="white"/>
<path d="M26.6902 49.6959C25.8464 50.4459 26.0808 51.7272 27.1277 52.1647C27.5496 52.3523 27.784 52.3679 28.2059 52.2273C29.2997 51.8679 29.581 50.5397 28.7528 49.7115C28.1278 49.1021 27.3621 49.0865 26.6902 49.6959Z" fill="white"/>
</svg>
