<svg width="41" height="41" viewBox="0 0 41 41" fill="none" xmlns="http://www.w3.org/2000/svg">
<g clip-path="url(#clip0_31_4460)">
<path d="M27.4267 38.5096C28.0032 38.3734 30.6058 37.0201 31.7108 36.2834C33.1442 35.3305 33.953 34.6818 35.1622 33.4727C39.078 29.5809 40.5595 25.4889 40.9198 17.5771C40.9759 16.44 40.9999 13.2609 40.9839 9.76953C40.9599 4.3002 40.9519 3.85977 40.8157 3.59551C40.6235 3.21914 40.2472 2.83477 39.8468 2.61855L39.5185 2.44238L32.5917 2.44238C26.9302 2.44238 25.6089 2.4664 25.3526 2.55449C24.9603 2.69062 24.4638 3.13906 24.2396 3.55547L24.0634 3.88379L24.0394 10.7225C24.0153 18.2418 24.0073 18.0736 24.5038 18.6742C24.6319 18.8344 24.9282 19.0586 25.1605 19.1707L25.5769 19.3789L28.8841 19.3789L32.1913 19.3789L32.1913 19.9635C32.1913 21.2447 31.879 23.0465 31.4306 24.3918C30.4136 27.4348 28.6439 29.3566 25.3046 31.0303C24.656 31.3586 24.0233 31.727 23.8792 31.8791C23.5108 32.2555 23.3587 32.7199 23.3987 33.3285C23.4308 33.777 23.5429 34.0652 24.3837 35.8189C25.3687 37.877 25.5528 38.1572 26.1374 38.3975C26.4978 38.5496 27.0583 38.5977 27.4267 38.5096Z" fill="#8054E7"/>
<path d="M4.64453 38.2533C10.0338 35.899 14.1418 31.8951 15.9596 27.2266C16.4801 25.8973 16.9445 23.8713 17.2088 21.7812C17.5451 19.1627 17.5771 18.1777 17.5771 10.8906C17.5771 4.17207 17.5691 3.86777 17.425 3.57949C17.2328 3.18711 16.8885 2.84277 16.4641 2.61855L16.1357 2.44238L9.16894 2.44238C2.2582 2.44238 2.20215 2.44238 1.8418 2.61055C1.40937 2.81074 1.08906 3.12305 0.848826 3.56348C0.680662 3.88379 0.680662 3.8998 0.656638 10.7225C0.632614 18.2418 0.624606 18.0736 1.12109 18.6742C1.24922 18.8344 1.5455 19.0586 1.77773 19.1707L2.19414 19.3789L5.5414 19.3789C8.80058 19.3789 8.88867 19.3789 8.88867 19.5311C8.88867 20.1316 8.68047 21.9014 8.52031 22.7021C8.27207 23.9354 8.00781 24.7281 7.4873 25.8252C6.38222 28.1475 4.70058 29.709 1.84179 31.0863C0.368355 31.791 0.0480426 32.1674 0.0400347 33.1924C0.0400347 33.7449 0.0560503 33.777 0.960933 35.6588C1.46543 36.6998 1.98593 37.6928 2.11406 37.8529C2.68261 38.5416 3.63554 38.6937 4.64453 38.2533Z" fill="#8054E7"/>
</g>
<defs>
<clipPath id="clip0_31_4460">
<rect width="41" height="41" fill="white" transform="translate(41 41) rotate(-180)"/>
</clipPath>
</defs>
</svg>
