<svg width="13" height="8" viewBox="0 0 13 8" fill="none" xmlns="http://www.w3.org/2000/svg">
<path d="M12.6352 0.372418C12.4042 0.133886 12.0916 0 11.7658 0C11.44 0 11.1275 0.133886 10.8964 0.372418L6.46917 4.90609L2.10361 0.372418C1.87255 0.133886 1.55999 0 1.23419 0C0.908398 0 0.595839 0.133886 0.364781 0.372418C0.249195 0.491475 0.15745 0.633122 0.0948421 0.789187C0.0322336 0.945252 0 1.11265 0 1.28171C0 1.45078 0.0322336 1.61818 0.0948421 1.77424C0.15745 1.93031 0.249195 2.07195 0.364781 2.19101L5.59359 7.62117C5.70823 7.74121 5.84463 7.83649 5.99491 7.90151C6.14518 7.96652 6.30637 8 6.46917 8C6.63197 8 6.79316 7.96652 6.94343 7.90151C7.09371 7.83649 7.23011 7.74121 7.34475 7.62117L12.6352 2.19101C12.7508 2.07195 12.8425 1.93031 12.9052 1.77424C12.9678 1.61818 13 1.45078 13 1.28171C13 1.11265 12.9678 0.945252 12.9052 0.789187C12.8425 0.633122 12.7508 0.491475 12.6352 0.372418Z" fill="white"/>
</svg>
