<svg width="30" height="31" viewBox="0 0 30 31" fill="none" xmlns="http://www.w3.org/2000/svg">
<path d="M14.797 0.170621C15.3002 0.170621 15.7957 0.203271 16.2566 0.280095C16.7106 0.33958 17.1585 0.438545 17.5953 0.575865C18.0332 0.708386 18.4615 0.873556 18.8898 1.08098C19.3065 1.2788 19.7348 1.52079 20.1631 1.78391C20.8872 2.24486 21.5997 2.61745 22.3257 2.91514C23.7549 3.48715 25.2662 3.82753 26.8026 3.92345C27.5823 3.97915 28.3832 4.01179 29.2168 4.01179V11.6941C29.2168 13.1538 29.0305 14.5366 28.6579 15.8541C28.3 17.1529 27.7914 18.4053 27.1425 19.5858C26.4964 20.7648 25.7319 21.8748 24.8609 22.8988C23.9765 23.9462 23.0189 24.9294 21.9953 25.8412C20.9583 26.7557 19.8659 27.6055 18.7246 28.386C17.5838 29.1772 16.4314 29.9128 15.2791 30.5812L14.8181 30.8558L14.3572 30.5812C13.1726 29.8954 12.0155 29.163 10.8886 28.386C9.74084 27.6143 8.64796 26.764 7.61783 25.8412C6.5949 24.9294 5.63797 23.9461 4.75423 22.8988C3.88554 21.8705 3.11762 20.761 2.46105 19.5858C1.82329 18.4 1.31524 17.1489 0.94571 15.8541C0.570753 14.4996 0.385889 13.0996 0.396422 11.6941V4.01179C1.23188 4.01179 2.03276 3.97915 2.81252 3.92345C3.5801 3.87013 4.34272 3.76036 5.09418 3.59503C5.82976 3.42986 6.56535 3.21091 7.28941 2.91514C8.04075 2.61191 8.7611 2.23694 9.44047 1.79544C10.2855 1.24615 11.1421 0.840906 11.9872 0.573945C12.8973 0.294944 13.8452 0.158884 14.797 0.170621V0.170621ZM27.2846 5.89973C25.8308 5.82919 24.3905 5.58613 22.994 5.17567C21.605 4.76131 20.2819 4.1515 19.0645 3.36456C18.4331 2.95009 17.7473 2.62499 17.0268 2.3985C16.307 2.18097 15.5585 2.07348 14.8066 2.07968C14.0491 2.07479 13.2951 2.18223 12.5691 2.3985C11.8475 2.61762 11.1626 2.94323 10.5371 3.36456C9.31766 4.15579 7.99115 4.76828 6.598 5.18335C5.2363 5.57899 3.81123 5.82099 2.31701 5.90933V11.7037C2.31701 12.9771 2.48218 14.1947 2.81252 15.3682C3.14906 16.5315 3.6128 17.6541 4.19534 18.7158C4.78487 19.7885 5.4797 20.7999 6.26958 21.735C7.07046 22.678 7.92512 23.5557 8.84701 24.3892C9.76889 25.2247 10.7349 25.9929 11.7452 26.7055C12.765 27.4199 13.7868 28.0671 14.8066 28.6587C15.8508 28.0508 16.869 27.3991 17.8584 26.7055C18.8753 25.9952 19.8465 25.2215 20.7662 24.3892C21.6881 23.5557 22.5446 22.678 23.3455 21.735C24.1355 20.8 24.8303 19.7886 25.4198 18.7158C25.9997 17.6555 26.4566 16.5323 26.7814 15.3682C27.1218 14.1767 27.2912 12.9429 27.2846 11.7037V5.89973V5.89973Z" fill="#8054E7"/>
<path fill-rule="evenodd" clip-rule="evenodd" d="M21.9566 9.21465L21.1115 8.48867L20.3317 8.55589L11.958 18.4431L9.10591 14.3714L8.33767 14.2408L7.44844 14.8765L7.31592 15.6448L10.9823 20.8803L11.3991 21.1108L12.2768 21.1645L12.7262 20.9686L22.0123 9.99249L21.9566 9.21465V9.21465Z" fill="#8054E7"/>
</svg>
