<svg width="80" height="80" viewBox="0 0 80 80" fill="none" xmlns="http://www.w3.org/2000/svg">
<path d="M37.6554 0.0519423C36.3893 0.223907 33.9821 0.755435 32.8566 1.13063C31.2623 1.67779 28.8707 2.88155 27.3702 3.8977C25.7602 4.99203 22.6027 8.16556 21.5711 9.72888C19.9611 12.1833 18.7731 14.9973 18.1635 17.8269C17.7727 19.6403 17.7727 24.8305 18.1635 26.644C18.8669 29.9269 19.8204 32.0062 22.634 36.446C23.7594 38.2438 24.666 39.7758 24.6504 39.854C24.6191 39.9322 21.7586 41.5893 18.2729 43.5591L11.9424 47.1234L5.97132 62.8191C2.68881 71.4487 0.000274026 78.6712 0.000274026 78.8744C-0.015357 79.3278 0.641145 80 1.09444 80C1.28202 80 1.90726 79.7499 2.46997 79.4216C4.79899 78.1397 19.6328 69.7759 20.0861 69.5101L20.5707 69.2131L30.1212 74.6066C35.3889 77.5769 39.8281 80 40 80C40.172 80 44.5799 77.5925 49.8007 74.6535C55.0058 71.7144 59.3512 69.3225 59.445 69.3225C59.5388 69.3225 63.8373 71.6988 68.9955 74.6222C74.1538 77.53 78.5617 79.9375 78.7962 79.9687C79.312 80.0469 80.0154 79.4059 79.9997 78.8744C79.9997 78.6712 77.3112 71.4487 74.0287 62.8191L68.0577 47.1234L61.7271 43.5434C58.2414 41.5893 55.3809 39.9165 55.3497 39.854C55.334 39.7758 56.2406 38.2438 57.3661 36.446C60.1796 32.0062 61.1331 29.9269 61.8365 26.644C62.2273 24.8305 62.2273 19.6403 61.8365 17.8269C61.2425 15.0442 60.0077 12.1364 58.429 9.72888C57.2879 8.02486 54.2086 4.96076 52.4267 3.77264C49.9413 2.11552 47.2841 1.00557 44.4548 0.411505C43.0793 0.114475 38.8902 -0.104389 37.6554 0.0519423ZM44.2204 2.75648C51.1449 4.33543 56.6627 9.30678 58.8979 15.9978C59.57 17.9832 59.8514 19.8435 59.8514 22.2354C59.8514 25.5028 59.2574 28.1917 57.9131 30.9118C57.1941 32.3813 41.4381 57.4726 40.8128 58.1605C40.3752 58.6138 39.7812 58.7076 39.3591 58.3793C39.0153 58.1136 22.8841 32.522 22.1494 31.0682C20.8208 28.4574 20.1486 25.4871 20.1486 22.2354C20.1486 18.077 21.2272 14.5126 23.5406 11.0108C24.6035 9.40058 27.2764 6.77421 29.027 5.63299C31.4342 4.05404 34.5917 2.85028 37.3896 2.45945C38.9058 2.24059 42.6885 2.41255 44.2204 2.75648ZM23.7438 47.3267C23.2279 49.7498 22.8059 51.8447 22.8059 51.9697C22.8059 52.3293 23.5406 52.9546 23.9626 52.9546C24.1814 52.9546 24.5253 52.7983 24.7442 52.595C25.0724 52.298 25.2443 51.704 26.0259 47.9051C26.5261 45.5288 26.9794 43.5747 27.0263 43.5747C27.0732 43.5747 29.4335 47.2485 32.2627 51.7352C36.8269 58.9734 37.4678 59.927 38.0774 60.2866L38.7339 60.693L38.7495 68.7128V76.7327L38.2493 76.4669C37.7648 76.2168 21.9775 67.3371 21.9306 67.2746C21.9149 67.2746 22.4308 64.7889 23.0716 61.7874C24.1189 56.8629 24.2283 56.2688 24.0251 55.9249C23.7125 55.3621 23.1811 55.1433 22.634 55.3308C22.3839 55.4246 22.1181 55.6122 22.04 55.7529C21.9618 55.8936 21.3991 58.395 20.7739 61.3184C20.1643 64.2418 19.6328 66.7431 19.5859 66.8838C19.5234 67.1183 3.62667 76.2011 3.51725 76.0761C3.48599 76.0448 5.79938 69.8853 8.64422 62.397L13.8181 48.7649L19.2108 45.7164C22.1807 44.0437 24.6191 42.7305 24.6504 42.793C24.666 42.8399 24.2596 44.8879 23.7438 47.3267ZM61.1019 45.904L66.1819 48.7649L71.3558 62.3814C74.2006 69.8853 76.514 76.0448 76.4828 76.0604C76.4671 76.0917 72.8564 74.0907 68.4641 71.6206C62.5712 68.3064 60.4454 67.0401 60.3985 66.8056C60.1327 65.7269 55.3184 42.9025 55.3184 42.7618C55.3184 42.668 55.4591 42.6836 55.6779 42.8243C55.8655 42.9494 58.3039 44.3251 61.1019 45.904ZM55.5372 55.2527C56.8971 61.6936 58.0382 67.0245 58.0851 67.1026C58.1163 67.2277 42.1884 76.3731 41.3755 76.6858C41.313 76.717 41.2505 73.137 41.2505 68.7128L41.2661 60.693L41.9226 60.2866C42.5322 59.927 43.1731 58.9734 47.7374 51.7352C50.5666 47.2485 52.9112 43.5747 52.9737 43.5747C53.0206 43.5747 54.1773 48.8274 55.5372 55.2527Z" fill="white"/>
<path d="M37.9367 9.49416C35.764 9.88499 33.6538 10.8386 31.9344 12.2143C29.6054 14.0747 27.8704 16.9199 27.3546 19.7183C27.1357 20.922 27.1357 23.5484 27.3546 24.7521C27.7141 26.7063 28.8239 28.9575 30.2776 30.7084C31.6843 32.3811 34.4823 34.1008 36.8738 34.7574C38.4369 35.1951 41.7194 35.1482 43.3294 34.6948C49.0816 33.0534 52.8175 28.1445 52.8175 22.2352C52.8175 16.3571 49.066 11.417 43.4076 9.80682C42.1259 9.43163 39.156 9.25966 37.9367 9.49416ZM43.0481 12.1518C45.721 12.9804 48.1751 15.0439 49.3474 17.4671C50.2227 19.2336 50.4728 20.328 50.4728 22.2352C50.4728 24.1424 50.2227 25.2368 49.3474 27.0033C48.8472 28.0507 48.4408 28.5979 47.4404 29.5984C45.2208 31.8027 43.0637 32.7094 40 32.7094C36.9364 32.7094 34.7793 31.8027 32.5597 29.5984C30.4808 27.5192 29.5273 25.2055 29.5273 22.2352C29.5273 20.3436 29.793 19.2336 30.6371 17.4983C31.7 15.3097 33.9039 13.2774 36.061 12.4645C38.3275 11.6046 40.9066 11.4796 43.0481 12.1518Z" fill="white"/>
<path d="M38.0932 14.2782C35.3734 14.9348 32.9975 17.1391 32.1847 19.7811C31.7627 21.1412 31.7627 23.3299 32.1847 24.6899C33.0131 27.3632 35.3734 29.5519 38.1557 30.2085C42.2511 31.1777 46.5808 28.7077 47.8157 24.6899C48.2377 23.3299 48.2377 21.1412 47.8157 19.7811C46.5808 15.7478 42.2042 13.2777 38.0932 14.2782ZM41.7352 16.6858C44.2362 17.4674 45.7837 19.5935 45.7837 22.2355C45.7837 24.8775 44.2362 27.0037 41.7352 27.7853C40.4848 28.1761 39.5156 28.1761 38.2652 27.7853C36.4676 27.2225 35.1858 26.0031 34.5137 24.2053C34.0448 22.9547 34.1386 20.8598 34.7325 19.7186C35.5141 18.1709 36.6708 17.186 38.2652 16.6701C39.4218 16.2949 40.5316 16.3106 41.7352 16.6858Z" fill="white"/>
</svg>
