<svg width="80" height="81" viewBox="0 0 80 81" fill="none" xmlns="http://www.w3.org/2000/svg">
<path d="M34.4055 4.94742L29.2306 8.91538H20.5507C11.9039 8.91538 11.3914 8.94845 11.0442 9.47751C10.978 9.57671 10.9119 12.6353 10.9119 16.2892V22.9024L5.45595 27.0853L0 31.2517V55.853C0 79.4789 0.0165332 80.4709 0.297597 80.7189C0.578661 80.9835 3.57116 81 40.0433 81C78.0531 81 79.4749 80.9835 79.7395 80.7024C80.004 80.4213 80.0205 78.5035 79.9875 55.7869L79.9379 31.169L74.5315 27.0357L69.1086 22.9024V16.2892C69.1086 12.6353 69.0425 9.57671 68.9764 9.47751C68.6292 8.94845 68.1167 8.91538 59.4698 8.91538H50.8064L45.6315 4.94742C41.9612 2.13678 40.3079 0.979458 40.0103 0.979458C39.7127 0.979458 38.0759 2.13678 34.4055 4.94742ZM43.6476 6.30314L46.9377 8.83271L43.4822 8.88231C41.5644 8.89885 38.4561 8.89885 36.5383 8.88231L33.0829 8.83271L36.5052 6.22047C38.3735 4.78209 40.0103 3.65783 40.126 3.6909C40.2417 3.7405 41.8289 4.91435 43.6476 6.30314ZM66.9593 25.6635V40.0969L57.4362 47.8675C52.1952 52.1331 47.3675 55.9688 46.6897 56.3821C42.9366 58.7298 37.7948 58.8456 33.8103 56.6797C32.7687 56.101 31.2477 54.8941 19.9555 45.7017L13.0612 40.0969V25.6635V11.23H40.0103H66.9593V25.6635ZM10.9119 32.0618C10.9119 35.4181 10.8788 38.1791 10.8127 38.1791C10.7631 38.1791 8.97751 36.7572 6.84473 35.0213L2.97597 31.8634L6.233 29.3834C8.03512 28.0112 9.7711 26.672 10.0852 26.424C10.3994 26.1595 10.7135 25.9611 10.7962 25.9445C10.8623 25.9445 10.9119 28.6891 10.9119 32.0618ZM71.7043 27.7632C72.9443 28.7221 74.6638 30.0282 75.507 30.6896L77.0611 31.8634L73.2419 34.9882C71.1422 36.6911 69.3401 38.113 69.2574 38.146C69.1748 38.1791 69.1086 35.7983 69.1086 32.0618C69.1086 28.2261 69.1748 25.9445 69.274 25.9776C69.3566 25.9941 70.4478 26.8043 71.7043 27.7632ZM16.0206 45.4372C26.8003 54.2163 29.2472 56.2829 29.0653 56.4482C28.6189 56.8616 2.47998 77.3627 2.39731 77.3627C2.34771 77.3627 2.31464 67.6908 2.31464 55.8696C2.31464 38.0799 2.34771 34.3765 2.52957 34.4922C2.64531 34.5583 8.72951 39.4852 16.0206 45.4372ZM77.6398 77.3131C77.5902 77.3627 51.6 57.06 50.9552 56.4482C50.7734 56.2829 53.3525 54.1336 64.1818 45.3049L77.6232 34.3599L77.6728 55.8034C77.6894 67.6081 77.6728 77.28 77.6398 77.3131ZM34.389 59.4573C36.125 60.1847 37.861 60.4989 40.0103 60.4989C42.9697 60.4989 45.5985 59.7879 47.8801 58.3661L48.872 57.7378L62.1647 68.1703L75.4408 78.6027L57.7173 78.6523C47.9793 78.6688 32.0413 78.6688 22.3032 78.6523L4.59622 78.6027L17.8724 68.1703L31.1485 57.7544L32.1405 58.3496C32.7026 58.6802 33.7111 59.1762 34.389 59.4573Z" fill="white"/>
<path d="M21.5258 19.0505C21.0629 19.5465 21.0629 20.1747 21.5424 20.6211L21.9226 20.9849H40.0264H58.1468L58.494 20.6046C58.9569 20.1086 58.9569 19.4803 58.4775 19.0339L58.0972 18.6702H39.9934H21.873L21.5258 19.0505Z" fill="white"/>
<path d="M21.4932 27.9288C21.0633 28.3586 21.0633 29.1192 21.5097 29.5159C21.8404 29.8135 22.386 29.8301 40.0104 29.8301C57.6347 29.8301 58.1803 29.8135 58.511 29.5159C58.9574 29.1192 58.9574 28.3586 58.5275 27.9288C58.1968 27.5981 57.9819 27.5981 40.0104 27.5981C22.0388 27.5981 21.8239 27.5981 21.4932 27.9288Z" fill="white"/>
<path d="M21.592 36.7078C21.0629 37.1212 21.0133 37.8652 21.4928 38.3446C21.8234 38.6753 22.0384 38.6753 40.0099 38.6753C57.9815 38.6753 58.1964 38.6753 58.5271 38.3446C59.0065 37.8652 58.9569 37.1212 58.4279 36.7078C57.9815 36.3606 57.9484 36.3606 40.0099 36.3606C22.0714 36.3606 22.0384 36.3606 21.592 36.7078Z" fill="white"/>
</svg>
