<svg width="28" height="28" viewBox="0 0 28 28" fill="none" xmlns="http://www.w3.org/2000/svg">
<path d="M1.41426 0L0 1.41329L2.49138 5.71883L4.10706 5.48203L13.9692 15.3385L13.128 16.1458C12.6971 16.5763 12.6971 17.2286 13.128 17.6592L13.5653 18.0973C13.9961 18.5278 14.6553 18.5278 14.9785 18.0973L16.2581 19.3749C16.1504 20.0208 16.2581 20.7882 16.7966 21.3264L22.6196 27.112C23.8044 28.296 25.7432 28.296 26.928 27.112C28.3283 25.8203 28.3154 23.8893 27.1305 22.7053L21.341 16.8853C20.8024 16.3471 20.0345 16.1318 19.3882 16.3471L17.9739 15.0694C18.2971 14.6388 18.2971 13.9801 17.9739 13.6561L17.57 13.2535C17.4721 13.1515 17.3545 13.0703 17.2244 13.0148C17.0943 12.9594 16.9543 12.9308 16.8128 12.9308C16.6713 12.9308 16.5313 12.9594 16.4012 13.0148C16.271 13.0703 16.1535 13.1515 16.0556 13.2535L15.349 13.9596L5.48686 4.10426L5.72167 2.48968L1.41318 0L1.41426 0ZM22.4181 0.0333679C20.293 -0.143159 17.4752 1.26475 16.1568 2.4886C14.5347 4.10964 14.7996 6.22904 16.089 8.27525L13.8012 10.5626L15.4168 12.3784C16.2785 11.625 17.5495 11.625 18.4112 12.3784L18.8496 12.8154L18.9509 12.9166L19.8934 11.9748C21.8408 13.119 23.8679 13.2837 25.4136 11.7391C26.9216 10.3398 28.5566 6.88886 27.8027 4.84373L24.7738 7.97171C24.3429 8.40226 23.6902 8.40226 23.2594 7.97171L20.1282 4.84373C20.0261 4.74588 19.9448 4.6284 19.8893 4.49836C19.8338 4.36832 19.8052 4.22841 19.8052 4.08703C19.8052 3.94566 19.8338 3.80574 19.8893 3.6757C19.9448 3.54566 20.0261 3.42819 20.1282 3.33033L23.2604 0.20236C22.9912 0.107638 22.7219 0.0592012 22.4181 0.0333679ZM10.5698 13.4548L6.66415 17.3567C6.24446 17.2635 5.81552 17.2184 5.38561 17.2222C2.36967 17.2222 0 19.5902 0 22.6041C0 25.618 2.36967 27.986 5.38561 27.986C8.40155 27.986 10.7712 25.618 10.7712 22.6041C10.7712 22.0519 10.684 21.5212 10.5353 21.0229L12.8242 18.7356L12.4881 18.2985C11.6264 17.4374 11.6329 16.1329 12.3869 15.2707L10.5687 13.4548H10.5698ZM18.9175 18.3664C19.0521 18.3664 19.1792 18.3922 19.2869 18.5009L25.6495 24.858C25.8649 25.0733 25.8649 25.4156 25.6495 25.6309C25.4341 25.8462 25.0894 25.8462 24.874 25.6309L18.5136 19.2737C18.2981 19.0585 18.2981 18.7162 18.5136 18.5009C18.6213 18.3933 18.7828 18.3664 18.9175 18.3664ZM6.12667 19.8109L8.17966 21.8635L7.4386 24.6546L4.64563 25.3951L2.59155 23.3425L3.33261 20.5514L6.12667 19.8109V19.8109Z" fill="#8054E7"/>
</svg>
