<svg width="36" height="36" viewBox="0 0 36 36" fill="none" xmlns="http://www.w3.org/2000/svg">
<path d="M22.248 22.014C21.0447 22.9841 19.5457 23.5132 18 23.5132C16.4544 23.5132 14.9553 22.9841 13.752 22.014C13.3844 21.7085 12.9105 21.5615 12.4345 21.6054C11.9586 21.6492 11.5195 21.8804 11.214 22.248C10.9085 22.6156 10.7615 23.0895 10.8054 23.5655C10.8493 24.0414 11.0804 24.4805 11.448 24.786C13.2864 26.3207 15.6052 27.1613 18 27.1613C20.3948 27.1613 22.7136 26.3207 24.552 24.786C24.9196 24.4805 25.1508 24.0414 25.1946 23.5655C25.2385 23.0895 25.0915 22.6156 24.786 22.248C24.6347 22.066 24.4491 21.9155 24.2397 21.8053C24.0302 21.695 23.8011 21.6271 23.5655 21.6054C23.0895 21.5615 22.6156 21.7085 22.248 22.014V22.014ZM12.978 15.372C13.3153 15.7072 13.7715 15.8954 14.247 15.8954C14.7225 15.8954 15.1788 15.7072 15.516 15.372C15.8513 15.0347 16.0394 14.5785 16.0394 14.103C16.0394 13.6275 15.8513 13.1712 15.516 12.834C14.4859 11.8566 13.12 11.3117 11.7 11.3117C10.28 11.3117 8.91411 11.8566 7.88401 12.834C7.69558 12.9954 7.54254 13.1939 7.4345 13.4173C7.32646 13.6406 7.26574 13.8838 7.25617 14.1317C7.24659 14.3796 7.28836 14.6268 7.37886 14.8578C7.46935 15.0888 7.60662 15.2985 7.78204 15.474C7.95745 15.6494 8.16724 15.7866 8.39823 15.8771C8.62921 15.9676 8.87641 16.0094 9.1243 15.9998C9.3722 15.9903 9.61544 15.9295 9.83875 15.8215C10.0621 15.7135 10.2606 15.5604 10.422 15.372C10.5893 15.2033 10.7884 15.0694 11.0078 14.978C11.2271 14.8866 11.4624 14.8396 11.7 14.8396C11.9376 14.8396 12.1729 14.8866 12.3922 14.978C12.6116 15.0694 12.8107 15.2033 12.978 15.372ZM28.116 12.834C27.0859 11.8566 25.72 11.3117 24.3 11.3117C22.88 11.3117 21.5141 11.8566 20.484 12.834C20.1891 13.1783 20.035 13.6213 20.0525 14.0743C20.07 14.5273 20.2578 14.957 20.5784 15.2776C20.899 15.5982 21.3287 15.786 21.7817 15.8035C22.2347 15.821 22.6777 15.6669 23.022 15.372C23.1893 15.2033 23.3884 15.0694 23.6078 14.978C23.8271 14.8866 24.0624 14.8396 24.3 14.8396C24.5376 14.8396 24.7729 14.8866 24.9922 14.978C25.2116 15.0694 25.4107 15.2033 25.578 15.372C25.9153 15.7072 26.3715 15.8954 26.847 15.8954C27.3225 15.8954 27.7788 15.7072 28.116 15.372C28.4513 15.0347 28.6394 14.5785 28.6394 14.103C28.6394 13.6275 28.4513 13.1712 28.116 12.834V12.834ZM18 0C14.4399 0 10.9598 1.05568 7.99974 3.03355C5.03966 5.01141 2.73255 7.82263 1.37018 11.1117C0.00779911 14.4008 -0.348661 18.02 0.345873 21.5116C1.04041 25.0033 2.75474 28.2106 5.27209 30.7279C7.78943 33.2453 10.9967 34.9596 14.4884 35.6541C17.98 36.3487 21.5992 35.9922 24.8883 34.6298C28.1774 33.2674 30.9886 30.9603 32.9665 28.0003C34.9443 25.0402 36 21.5601 36 18C36 15.6362 35.5344 13.2956 34.6298 11.1117C33.7253 8.92783 32.3994 6.94353 30.7279 5.27208C29.0565 3.60062 27.0722 2.27475 24.8883 1.37017C22.7044 0.465584 20.3638 0 18 0V0ZM18 32.4C15.152 32.4 12.3679 31.5554 9.99979 29.9732C7.63173 28.3909 5.78604 26.1419 4.69614 23.5106C3.60624 20.8794 3.32107 17.984 3.8767 15.1907C4.43233 12.3974 5.80379 9.83154 7.81767 7.81766C9.83154 5.80378 12.3974 4.43232 15.1907 3.87669C17.984 3.32106 20.8794 3.60623 23.5106 4.69613C26.1419 5.78604 28.3909 7.63172 29.9732 9.99979C31.5555 12.3679 32.4 15.1519 32.4 18C32.4 21.8191 30.8829 25.4818 28.1823 28.1823C25.4818 30.8829 21.8191 32.4 18 32.4V32.4Z" fill="#8054E7"/>
</svg>
