<svg width="15" height="15" viewBox="0 0 15 15" fill="none" xmlns="http://www.w3.org/2000/svg">
<rect width="15" height="15" rx="7.5" fill="white"/>
<path d="M5.68125 9.13125L10.1062 4.70625C10.2437 4.56875 10.4188 4.5 10.6313 4.5C10.8438 4.5 11.0187 4.56875 11.1562 4.70625C11.2937 4.84375 11.3625 5.01875 11.3625 5.23125C11.3625 5.44375 11.2937 5.61875 11.1562 5.75625L6.20625 10.7062C6.05625 10.8562 5.88125 10.9312 5.68125 10.9312C5.48125 10.9312 5.30625 10.8562 5.15625 10.7062L3.20625 8.75625C3.06875 8.61875 3 8.44375 3 8.23125C3 8.01875 3.06875 7.84375 3.20625 7.70625C3.34375 7.56875 3.51875 7.5 3.73125 7.5C3.94375 7.5 4.11875 7.56875 4.25625 7.70625L5.68125 9.13125Z" fill="#8054E7"/>
</svg>
