<svg width="34" height="30" viewBox="0 0 34 30" fill="none" xmlns="http://www.w3.org/2000/svg">
<path d="M31.28 5.45455H4.08C3.71931 5.45455 3.37338 5.31088 3.11834 5.05515C2.86329 4.79941 2.72 4.45257 2.72 4.09091C2.72 3.72925 2.86329 3.3824 3.11834 3.12667C3.37338 2.87094 3.71931 2.72727 4.08 2.72727H27.2C27.5607 2.72727 27.9066 2.5836 28.1617 2.32787C28.4167 2.07214 28.56 1.7253 28.56 1.36364C28.56 1.00198 28.4167 0.655132 28.1617 0.3994C27.9066 0.143669 27.5607 0 27.2 0H4.08C2.99929 0.00448699 1.96413 0.436933 1.19995 1.20316C0.435768 1.96938 0.00447503 3.00731 0 4.09091V25.9091C0.00447503 26.9927 0.435768 28.0306 1.19995 28.7968C1.96413 29.5631 2.99929 29.9955 4.08 30H31.28C32.0014 30 32.6932 29.7127 33.2033 29.2012C33.7134 28.6897 34 27.996 34 27.2727V8.18182C34 7.4585 33.7134 6.76481 33.2033 6.25335C32.6932 5.74188 32.0014 5.45455 31.28 5.45455ZM31.28 27.2727H4.08C3.71931 27.2727 3.37338 27.1291 3.11834 26.8733C2.86329 26.6176 2.72 26.2707 2.72 25.9091V7.94318C3.15617 8.10093 3.61632 8.18167 4.08 8.18182H31.28V27.2727ZM23.12 17.7273C23.12 17.3227 23.2396 16.9273 23.4638 16.5909C23.688 16.2545 24.0066 15.9923 24.3793 15.8375C24.7521 15.6827 25.1623 15.6422 25.558 15.7211C25.9537 15.8 26.3172 15.9949 26.6025 16.2809C26.8878 16.567 27.0821 16.9314 27.1608 17.3282C27.2395 17.725 27.1991 18.1363 27.0447 18.51C26.8903 18.8838 26.6288 19.2032 26.2934 19.428C25.9579 19.6528 25.5635 19.7727 25.16 19.7727C24.619 19.7727 24.1001 19.5572 23.7175 19.1736C23.3349 18.79 23.12 18.2698 23.12 17.7273Z" fill="#8054E7"/>
</svg>
