<svg width="1445" height="119" viewBox="0 0 1445 119" fill="none" xmlns="http://www.w3.org/2000/svg">
<path d="M0 0L48.1667 8.76357C96.3333 19.1165 192.667 27.0306 289 29.75C385.333 32.2786 481.667 14.2754 578 21.9089C674.333 29.5424 770.667 57.9318 867 60.4604C963.333 63.1798 1059.67 37.4167 1156 27.3977C1252.33 17.3787 1348.67 22.1496 1396.83 24.8691L1445 27.3977V119H1396.83C1348.67 119 1252.33 119 1156 119C1059.67 119 963.333 119 867 119C770.667 119 674.333 119 578 119C481.667 119 385.333 119 289 119C192.667 119 96.3333 119 48.1667 119H0V0Z" fill="white"/>
</svg>
