<svg width="1450" height="121" viewBox="0 0 1450 121" fill="none" xmlns="http://www.w3.org/2000/svg">
<path d="M0 0L48.3333 8.91085C96.6667 19.4378 193.333 27.4848 290 30.25C386.667 32.8211 483.333 14.5153 580 22.2771C676.667 30.039 773.333 58.9054 870 61.4765C966.667 64.2417 1063.33 38.0455 1160 27.8581C1256.67 17.6707 1353.33 22.5219 1401.67 25.287L1450 27.8581V121H1401.67C1353.33 121 1256.67 121 1160 121C1063.33 121 966.667 121 870 121C773.333 121 676.667 121 580 121C483.333 121 386.667 121 290 121C193.333 121 96.6667 121 48.3333 121H0V0Z" fill="#8054E7"/>
</svg>
